<?xml version="1.0" standalone="no"?>
<!DOCTYPE svg PUBLIC "-//W3C//DTD SVG 20010904//EN"
 "http://www.w3.org/TR/2001/REC-SVG-20010904/DTD/svg10.dtd">
<svg version="1.0" xmlns="http://www.w3.org/2000/svg"
 width="338.000000pt" height="316.000000pt" viewBox="0 0 338.000000 316.000000"
 preserveAspectRatio="xMidYMid meet">

<g transform="translate(0.000000,316.000000) scale(0.100000,-0.100000)"
fill="#000000" stroke="none">
<path d="M2325 3019 c-36 -72 -256 -500 -489 -952 -233 -452 -523 -1018 -646
-1257 -122 -239 -262 -513 -311 -608 l-89 -173 95 3 96 3 290 555 c579 1106
1329 2549 1329 2554 0 3 -47 6 -105 6 l-105 0 -65 -131z"/>
<path d="M475 2690 c-27 -4 -62 -13 -76 -18 -46 -18 -101 -75 -125 -128 -27
-62 -32 -102 -44 -403 -9 -221 -11 -237 -35 -287 -30 -61 -75 -99 -139 -116
-25 -6 -47 -17 -49 -22 -1 -6 -1 -44 1 -83 3 -64 6 -73 23 -73 29 0 90 -28
117 -53 60 -55 82 -161 82 -392 1 -288 28 -393 118 -462 50 -38 87 -49 195
-57 l77 -6 0 84 0 83 -66 6 c-136 13 -143 29 -154 346 -9 252 -17 308 -58 387
-23 46 -78 98 -128 122 -19 8 -34 20 -34 26 0 6 26 27 57 46 69 43 107 93 134
179 18 55 22 105 29 306 5 156 13 254 21 279 18 51 57 74 137 82 l62 7 0 78 0
79 -47 -1 c-27 -1 -70 -5 -98 -9z"/>
<path d="M2760 2623 l0 -80 59 -6 c73 -6 125 -30 140 -64 19 -42 30 -157 31
-318 0 -181 12 -260 50 -342 23 -50 40 -71 89 -107 34 -24 67 -47 73 -50 14
-5 4 -15 -68 -66 -56 -38 -90 -85 -116 -156 -17 -50 -22 -98 -30 -314 -8 -201
-13 -262 -26 -290 -29 -61 -47 -65 -335 -68 l-258 -3 6 -32 c26 -125 102 -289
190 -412 73 -101 118 -152 219 -242 84 -76 114 -91 102 -50 -62 207 -94 417
-79 517 l8 55 65 6 c81 7 105 15 157 50 30 21 51 47 72 92 34 69 36 86 51 422
10 227 22 284 72 332 35 34 94 63 128 63 18 0 20 6 20 84 l0 84 -40 7 c-51 9
-117 58 -142 106 -28 54 -37 133 -47 391 -10 271 -22 322 -95 393 -49 48 -91
62 -209 71 l-87 7 0 -80z"/>
<path d="M1160 1941 c-47 -21 -194 -84 -328 -141 l-243 -103 3 -55 3 -56 320
-138 c176 -76 326 -138 333 -138 9 0 12 14 10 52 l-3 52 -259 107 c-143 58
-266 110 -274 115 -9 6 69 43 260 120 l273 111 3 57 c2 31 -1 56 -5 55 -4 0
-46 -18 -93 -38z"/>
<path d="M2132 1924 l3 -57 268 -110 c147 -60 267 -112 267 -116 0 -3 -120
-55 -266 -115 -146 -61 -268 -115 -271 -122 -2 -6 -3 -32 -1 -57 l3 -45 330
143 330 143 3 54 3 55 -327 139 c-179 76 -331 141 -336 143 -5 2 -8 -22 -6
-55z"/>
</g>
</svg>
